#!OML:ASF H:\Not Pregnant\Project 1\Capture day 1\Session 1\non-pregnant.ASF
:FULLY-SPECIFIED
:DEGREES
292
root 4.22718 15.3295 12.3269 12.077 0.383676 -10.2399
lowerback 3.8917 4.80834 12.6317
upperback -5.89525 7.56239 1.50603
thorax -7.11785 3.05953 -6.05974
lowerneck 26.2116 -10.8382 -32.4729
upperneck -10.4532 -21.996 39.5419
head 1.77823 -13.6927 20.2222
rclavicle 5.68462e-014 2.60408e-014
rhumerus -32.7959 21.6263 -98.6436
rradius 82.4569
rwrist 0.905497
rhand -7.91069 -14.8837
rfingers 7.12502
rthumb 17.9948 -44.0713
lclavicle 5.68462e-014 2.60408e-014
lhumerus -62.2582 -9.70085 99.0388
lradius 87.3842
lwrist 39.753
lhand -18.2899 -6.23392
lfingers 7.12502
lthumb 7.99059 23.595
rfemur -15.9898 1.80659 34.3064
rtibia 42.2046
rfoot -25.8259 3.70866
rtoes -25.9566
lfemur -47.4277 -0.146138 -7.6719
ltibia 76.4232
lfoot -14.3286 5.1721
ltoes -30.9433
293
root 4.24394 15.3899 12.6201 12.2054 0.607263 -10.1328
lowerback 3.6543 4.99452 12.4926
upperback -5.9988 7.76518 1.37363
thorax -7.05067 3.166 -6.11359
lowerneck 26.567 -11.0595 -32.3208
upperneck -10.6834 -22.3132 39.716
head 1.8002 -13.9047 20.247
rclavicle 3.37748e-014 4.87022e-014
rhumerus -32.8517 21.0202 -98.5367
rradius 82.4087
rwrist 1.55228
rhand -8.51921 -14.189
rfingers 7.12502
rthumb 17.4092 -43.4293
lclavicle 3.37748e-014 4.87022e-014
lhumerus -62.8666 -8.81934 98.6018
lradius 87.7867
lwrist 40.6812
lhand -17.6762 -5.92277
lfingers 7.12502
lthumb 8.58279 23.8828
rfemur -14.2062 2.12495 34.1774
rtibia 40.606
rfoot -24.6952 3.67309
rtoes -27.0263
lfemur -48.239 -0.557392 -7.84004
ltibia 73.7612
lfoot -14.3822 6.77628
ltoes -30.0888
294
root 4.25873 15.4546 12.9161 12.446 0.712044 -10.0074
lowerback 3.31938 5.21652 12.2562
upperback -6.12912 7.99676 1.23462
thorax -6.96036 3.29337 -6.11218
lowerneck 26.9126 -11.2677 -32.176
upperneck -10.9444 -22.604 39.8943
head 1.80696 -14.1031 20.2818
rclavicle -1.92573e-016 8.05078e-015
rhumerus -32.9942 20.4721 -98.4642
rradius 82.405
rwrist 2.04402
rhand -9.14078 -13.5891
rfingers 7.12502
rthumb 16.8109 -42.8814
lclavicle -1.92573e-016 8.05078e-015
lhumerus -63.4877 -7.93038 98.0714
lradius 88.2258
lwrist 41.2053
lhand -16.6984 -5.54033
lfingers 7.12502
lthumb 9.52636 24.2243
rfemur -12.5645 2.51423 34.0215
rtibia 39.0274
rfoot -23.3925 3.78441
rtoes -27.9572
lfemur -48.968 -0.809983 -8.03569
ltibia 70.8331
lfoot -14.4379 8.20212
ltoes -29.2027
295
root 4.27149 15.5231 13.2157 12.793 0.70039 -9.86086
lowerback 2.86506 5.47332 11.9244
upperback -6.27009 8.25252 1.086
thorax -6.81808 3.44193 -6.05466
lowerneck 27.201 -11.473 -32.0383
upperneck -11.2062 -22.876 40.0773
head 1.81759 -14.288 20.3165
rclavicle 1.53561e-014 -1.78906e-015
rhumerus -33.1927 20.0014 -98.4223
rradius 82.443
rwrist 2.36397
rhand -9.80696 -13.1104
rfingers 7.12502
rthumb 16.1695 -42.4559
lclavicle 1.53561e-014 -1.78906e-015
lhumerus -64.0957 -7.06117 97.4647
lradius 88.6847
lwrist 41.2855
lhand -15.5195 -5.19696
lfingers 7.12502
lthumb 10.6637 24.5124
rfemur -11.0661 2.94939 33.8233
rtibia 37.4798
rfoot -21.9323 4.06406
rtoes -28.7669
lfemur -49.6105 -0.917586 -8.26069
ltibia 67.6534
lfoot -14.5001 9.40304
ltoes -28.3952
296
root 4.28276 15.5938 13.5191 13.2053 0.626118 -9.7068
lowerback 2.32795 5.74064 11.5316
upperback -6.42344 8.5109 0.934076
thorax -6.64977 3.59705 -5.9555
lowerneck 27.4535 -11.6681 -31.9051
upperneck -11.4645 -23.1251 40.258
head 1.82628 -14.4584 20.3517
rclavicle 8.79172e-014 3.84648e-014
rhumerus -33.4666 19.6078 -98.423
rradius 82.5195
rwrist 2.50449
rhand -10.5053 -12.7406
rfingers 7.12502
rthumb 15.4971 -42.1395
lclavicle 8.79172e-014 3.84648e-014
lhumerus -64.7063 -6.23225 96.8048
lradius 89.1541
lwrist 41.0326
lhand -14.2617 -5.01883
lfingers 7.12502
lthumb 11.8768 24.6243
rfemur -9.6726 3.38415 33.5997
rtibia 35.954
rfoot -20.3233 4.50431
rtoes -29.4343
lfemur -50.1494 -0.939041 -8.49176
ltibia 64.2435
lfoot -14.555 10.3415
ltoes -27.7024
297
root 4.29448 15.6649 13.8268 13.6251 0.579742 -9.52799
lowerback 1.71781 5.9861 11.1215
upperback -6.55966 8.73127 0.772266
thorax -6.43069 3.73831 -5.84256
lowerneck 27.6674 -11.8647 -31.7632
upperneck -11.7309 -23.3593 40.4369
head 1.8317 -14.6184 20.3825
rclavicle 2.96205e-014 5.11871e-015
rhumerus -33.7824 19.2884 -98.453
rradius 82.6251
rwrist 2.45592
rhand -11.217 -12.461
rfingers 7.12502
rthumb 14.8115 -41.9117
lclavicle 2.96205e-014 5.11871e-015
lhumerus -65.2852 -5.47031 96.1153
lradius 89.636
lwrist 40.6582
lhand -13.0666 -5.03741
lfingers 7.12502
lthumb 13.029 24.5357
rfemur -8.32593 3.72123 33.3403
rtibia 34.4409
rfoot -18.5842 5.10261
rtoes -29.9505
lfemur -50.5564 -0.990973 -8.73732
ltibia 60.6362
lfoot -14.5628 11.045
ltoes -27.346
298
root 4.3084 15.7344 14.1397 13.9989 0.607766 -9.31254
lowerback 1.08286 6.18731 10.7195
upperback -6.67687 8.89294 0.599737
thorax -6.18689 3.85161 -5.73647
lowerneck 27.8477 -12.0615 -31.6132
upperneck -11.9819 -23.584 40.6018
head 1.83894 -14.7697 20.4011
rclavicle -1.54322e-013 -2.93207e-014
rhumerus -34.1627 19.0417 -98.5217
rradius 82.752
rwrist 2.20943
rhand -11.9376 -12.2299
rfingers 7.12502
rthumb 14.1171 -41.7303
lclavicle -1.54322e-013 -2.93207e-014
lhumerus -65.864 -4.78298 95.4205
lradius 90.1634
lwrist 40.3926
lhand -12.0619 -5.21776
lfingers 7.12502
lthumb 13.9974 24.291
rfemur -6.9624 3.89976 33.0372
rtibia 32.9306
rfoot -16.7296 5.84506
rtoes -30.3414
lfemur -50.7976 -1.14751 -9.00357
ltibia 56.8845
lfoot -14.5251 11.5488
ltoes -27.3976
299
root 4.32445 15.7998 14.4565 14.3262 0.727013 -9.07563
lowerback 0.417637 6.34202 10.3424
upperback -6.76997 8.99322 0.422397
thorax -5.90834 3.93529 -5.6399
lowerneck 28.0245 -12.2588 -31.4383
upperneck -12.2505 -23.793 40.7574
head 1.82997 -14.9124 20.4151
rclavicle -3.91626e-014 2.11364e-015
rhumerus -34.5857 18.8664 -98.6205
rradius 82.8842
rwrist 1.77704
rhand -12.648 -12.0217
rfingers 7.12502
rthumb 13.4325 -41.5686
lclavicle -3.91626e-014 2.11364e-015
lhumerus -66.4237 -4.1762 94.7381
lradius 90.7291
lwrist 40.4078
lhand -11.283 -5.51724
lfingers 7.12502
lthumb 14.7479 23.9381
rfemur -5.59399 3.91284 32.7138
rtibia 31.4372
rfoot -14.7516 6.70915
rtoes -30.591
lfemur -50.9155 -1.42115 -9.26595
ltibia 53.0683
lfoot -14.4364 11.8807
ltoes -27.8837
300
root 4.34425 15.8587 14.7778 14.5758 0.966066 -8.81276
lowerback -0.260606 6.43713 10.0152
upperback -6.83028 9.01723 0.242469
thorax -5.59449 3.98043 -5.56692
lowerneck 28.18 -12.4546 -31.2493
upperneck -12.5101 -23.9891 40.9025
head 1.81719 -15.0463 20.4215
rclavicle 5.5881e-014 1.79652e-014
rhumerus -35.0489 18.7718 -98.7496
rradius 83.0167
rwrist 1.1865
rhand -13.327 -11.8439
rfingers 7.12502
rthumb 12.7779 -41.4329
lclavicle 5.5881e-014 1.79652e-014
lhumerus -66.988 -3.64752 94.0904
lradius 91.3402
lwrist 40.7366
lhand -10.7911 -5.88575
lfingers 7.12502
lthumb 15.2217 23.5343
rfemur -4.1932 3.71424 32.3667
rtibia 29.9876
rfoot -12.665 7.67128
rtoes -30.7415
lfemur -50.9128 -1.85215 -9.52948
ltibia 49.2853
lfoot -14.3355 12.0541
ltoes -28.7307
301
root 4.36461 15.9104 15.1024 14.8522 1.18242 -8.56729
lowerback -1.02041 6.52565 9.68335
upperback -6.88739 9.0285 0.0726664
thorax -5.23691 4.02147 -5.46929
lowerneck 28.3011 -12.6502 -31.0419
upperneck -12.7525 -24.1705 41.0326
head 1.80246 -15.1688 20.4156
rclavicle 7.5657e-014 1.50082e-014
rhumerus -35.5412 18.7605 -98.9063
rradius 83.1363
rwrist 0.487296
rhand -13.9569 -11.6698
rfingers 7.12502
rthumb 12.1707 -41.2957
lclavicle 7.5657e-014 1.50082e-014
lhumerus -67.5632 -3.19037 93.4887
lradius 91.9673
lwrist 41.285
lhand -10.5989 -6.3365
lfingers 7.12502
lthumb 15.4068 23.0694
rfemur -2.89344 3.45478 32.0108
rtibia 28.6366
rfoot -10.4407 8.72209
rtoes -30.7813
lfemur -50.911 -2.26492 -9.7675
ltibia 45.6466
lfoot -14.2695 12.0231
ltoes -29.7386
